<svg xmlns="http://www.w3.org/2000/svg" width="276" height="263"><g fill="none"><path fill="#E91E63" d="M28.87.214c4.305 0 7.73.686 10.274 2.058 3.065 1.646 5.43 3.91 7.093 6.79 1.664 2.881 2.495 6.105 2.495 9.671 0 3.361-.848 6.465-2.544 9.311-1.696 2.847-4.011 5.093-6.947 6.739 3.523 1.303 6.49 3.566 8.904 6.79 2.414 3.224 3.62 6.859 3.62 10.906 0 3.566-.864 6.841-2.592 9.825-1.729 2.984-4.028 5.333-6.898 7.047-1.435.823-3.034 1.44-4.795 1.852-1.761.412-4.11.618-7.045.618H.3V.214h28.57z"/><path fill="#FFF" d="M98.267.214h3.819l28.003 71.596h-3.916l-9.204-23.66H83.384l-9.302 23.66h-3.819L98.267.214zM84.853 44.447H115.5L100.127 5.152 84.853 44.447zM187.369 2.58c3.917 1.92 7 4.766 9.253 8.538 2.252 3.772 3.378 7.955 3.378 12.55 0 5.35-1.55 10.132-4.65 14.35-3.102 4.217-7.067 7.012-11.898 8.384l17.331 25.408h-4.308l-16.743-24.688-3.134.103h-24.576V71.81h-3.623V.214h25.947c2.873 0 5.337.189 7.393.566 2.056.377 3.933.977 5.63 1.8zm-9.791 40.838c3.394 0 6.527-.891 9.4-2.674 2.872-1.783 5.156-4.183 6.853-7.2 1.698-3.018 2.546-6.31 2.546-9.876 0-3.978-.995-7.578-2.986-10.801s-4.75-5.623-8.274-7.2c-2.546-1.098-6.136-1.647-10.77-1.647h-22.325v39.398h25.556zM4.269 139.085c0 4.526 1.093 8.709 3.28 12.55 2.187 3.84 5.124 6.891 8.813 9.154 3.688 2.264 7.686 3.395 11.994 3.395 4.439 0 8.453-.926 12.043-2.777 3.59-1.852 6.414-4.424 8.47-7.715 2.056-3.292 3.117-6.995 3.182-11.11h3.525c0 4.732-1.191 9.035-3.574 12.91-2.382 3.874-5.646 6.926-9.791 9.155-4.145 2.229-8.763 3.343-13.855 3.343-4.961 0-9.563-1.303-13.806-3.909-4.243-2.606-7.605-6.12-10.085-10.544-2.48-4.423-3.72-9.24-3.72-14.452v-16.87c0-5.213 1.223-10.03 3.67-14.453 2.449-4.424 5.778-7.938 9.988-10.544 4.21-2.606 8.796-3.91 13.757-3.91 5.026 0 9.612 1.115 13.757 3.344s7.425 5.28 9.84 9.155c2.416 3.875 3.623 8.178 3.623 12.91h-3.525c-.065-4.115-1.142-7.818-3.23-11.11-2.09-3.291-4.913-5.863-8.47-7.715-3.558-1.851-7.556-2.777-11.995-2.777-4.308 0-8.29 1.131-11.945 3.395-3.656 2.263-6.56 5.314-8.715 9.155-2.154 3.84-3.23 8.023-3.23 12.55v16.87zm93.998-44.233h3.819l28.003 71.595h-3.916l-9.204-23.66H83.384l-9.302 23.66h-3.819l28.004-71.595zm-13.414 44.233H115.5l-15.373-39.296-15.274 39.296zm63.84 27.362h-3.623V94.852h3.917l23.793 44.13 23.695-44.13h3.623v71.595h-3.623v-63.983l-22.03 40.838h-3.428l-22.324-41.352v64.497zm77.352 0h-3.623V94.852h27.416c4.57 0 8.796 1.028 12.68 3.086 3.884 2.057 6.969 4.972 9.253 8.744 2.285 3.771 3.427 8.126 3.427 13.064 0 4.731-1.158 9.086-3.476 13.064-2.317 3.977-5.467 7.029-9.448 9.155-3.46 1.851-7.605 2.777-12.436 2.777h-23.793v21.705zm0-25.51h23.793c4.178 0 7.605-.687 10.281-2.058 3.46-1.715 6.234-4.286 8.323-7.715 2.089-3.43 3.133-7.235 3.133-11.418 0-4.115-1.044-7.887-3.133-11.316-2.089-3.429-4.896-6-8.42-7.715-2.677-1.371-6.071-2.057-10.184-2.057h-23.793v42.278zM28.562 191.751c-4.374 0-8.437 1.149-12.19 3.446-3.754 2.298-6.74 5.418-8.96 9.361-2.22 3.944-3.329 8.247-3.329 12.91v13.578c0 4.87.653 8.881 1.958 12.036 1.828 4.457 4.602 8.092 8.323 10.904 3.72 2.811 7.898 4.389 12.533 4.732v-33.432h29.864v6.79c0 4.388-.62 8.297-1.86 11.726-2.024 5.692-5.418 10.252-10.183 13.681-4.766 3.43-10.15 5.144-16.156 5.144-5.68 0-10.853-1.63-15.52-4.887-4.667-3.257-8.078-7.595-10.232-13.012-1.566-3.84-2.35-8.401-2.35-13.682V217.47c0-5.35 1.257-10.287 3.77-14.813s5.924-8.11 10.232-10.75c4.308-2.64 9.008-3.96 14.1-3.96 4.243 0 8.127.737 11.651 2.212 3.525 1.474 6.528 3.617 9.009 6.43a30.92 30.92 0 0 1 4.944 7.817c1.273 2.88 1.91 5.795 1.91 8.744H52.55c-.066-2.538-.67-5.04-1.812-7.51a27.308 27.308 0 0 0-4.357-6.686c-4.373-4.8-10.314-7.2-17.82-7.2zm24.576 37.238H30.422v29.729c4.7-.343 8.927-1.903 12.68-4.68 3.753-2.778 6.511-6.464 8.274-11.059 1.175-3.223 1.762-6.858 1.762-10.904v-3.086z"/><path fill="#9C27B0" d="M73.879 260.912v-71.606h3.827l47.685 48.664v-48.664h3.63v71.606z"/><path fill="#FFF" d="M145.469 189.735h64.128l-32.064 72.893-32.064-72.893zm32.064 63.87l26.492-60.077h-52.886l26.394 60.078z"/></g></svg>