<svg xmlns="http://www.w3.org/2000/svg" width="218" height="199"><path fill="#EDF2F6" fill-rule="evenodd" d="M-56.248 1.5A.751.751 0 0 1-57 .75c0-.414.337-.75.752-.75h21.496c.415 0 .752.336.752.75s-.337.75-.752.75h-21.496zM15.248 0a.751.751 0 1 1 0 1.5h-33.496a.751.751 0 1 1 0-1.5h33.496zm152 0c.414 0 .752.336.752.75s-.338.75-.754.75H32.754A.752.752 0 0 1 32 .75c0-.414.338-.75.754-.75H167.25zm50.002 0a.75.75 0 0 1 0 1.5h-33.5a.748.748 0 0 1-.75-.75c0-.414.333-.75.75-.75h33.5zM-56.248 30.5a.751.751 0 0 1-.752-.75c0-.414.337-.75.752-.75h21.496c.415 0 .752.336.752.75s-.337.75-.752.75h-21.496zM15.248 29a.751.751 0 1 1 0 1.5h-33.496a.751.751 0 1 1 0-1.5h33.496zm152 0c.414 0 .752.336.752.75s-.338.75-.754.75H32.754a.752.752 0 0 1-.754-.75c0-.414.338-.75.754-.75H167.25zm50.002 0a.75.75 0 0 1 0 1.5h-33.5a.748.748 0 0 1-.75-.75c0-.414.333-.75.75-.75h33.5zM-56.248 58.5a.751.751 0 0 1-.752-.75c0-.414.337-.75.752-.75h21.496c.415 0 .752.336.752.75s-.337.75-.752.75h-21.496zM15.248 57a.751.751 0 1 1 0 1.5h-33.496a.751.751 0 1 1 0-1.5h33.496zm152 0c.414 0 .752.336.752.75s-.338.75-.754.75H32.754a.752.752 0 0 1-.754-.75c0-.414.338-.75.754-.75H167.25zm50.002 0a.75.75 0 0 1 0 1.5h-33.5a.748.748 0 0 1-.75-.75c0-.414.333-.75.75-.75h33.5zM-56.248 86.5a.751.751 0 0 1-.752-.75c0-.414.337-.75.752-.75h21.496c.415 0 .752.336.752.75s-.337.75-.752.75h-21.496zM15.248 85a.751.751 0 1 1 0 1.5h-33.496a.751.751 0 1 1 0-1.5h33.496zm152 0c.414 0 .752.336.752.75s-.338.75-.754.75H32.754a.752.752 0 0 1-.754-.75c0-.414.338-.75.754-.75H167.25zm50.002 0a.75.75 0 0 1 0 1.5h-33.5a.748.748 0 0 1-.75-.75c0-.414.333-.75.75-.75h33.5zm-273.498 29.5a.751.751 0 0 1-.752-.75c0-.414.337-.75.752-.75h21.496c.415 0 .752.336.752.75s-.337.75-.752.75h-21.496zm71.496-1.5a.751.751 0 1 1 0 1.5h-33.496a.751.751 0 1 1 0-1.5h33.496zm152 0c.414 0 .752.336.752.75s-.338.75-.754.75H32.754a.752.752 0 0 1-.754-.75c0-.414.338-.75.754-.75H167.25zm50.002 0a.75.75 0 0 1 0 1.5h-33.5a.748.748 0 0 1-.75-.75c0-.414.333-.75.75-.75h33.5zm-273.498 29.5a.751.751 0 0 1-.752-.75c0-.414.337-.75.752-.75h21.496c.415 0 .752.336.752.75s-.337.75-.752.75h-21.496zm71.496-1.5a.751.751 0 1 1 0 1.5h-33.496a.751.751 0 1 1 0-1.5h33.496zm152 0c.414 0 .752.336.752.75s-.338.75-.754.75H32.754a.752.752 0 0 1-.754-.75c0-.414.338-.75.754-.75H167.25zm50.002 0a.75.75 0 0 1 0 1.5h-33.5a.748.748 0 0 1-.75-.75c0-.414.333-.75.75-.75h33.5zm-273.498 29.5a.751.751 0 0 1-.752-.75c0-.414.337-.75.752-.75h21.496c.415 0 .752.336.752.75s-.337.75-.752.75h-21.496zm71.496-1.5a.751.751 0 1 1 0 1.5h-33.496a.751.751 0 1 1 0-1.5h33.496zm152 0c.414 0 .752.336.752.75s-.338.75-.754.75H32.754a.752.752 0 0 1-.754-.75c0-.414.338-.75.754-.75H167.25zm50.002 0a.75.75 0 0 1 0 1.5h-33.5a.748.748 0 0 1-.75-.75c0-.414.333-.75.75-.75h33.5zm-273.498 29.5a.751.751 0 0 1-.752-.75c0-.414.337-.75.752-.75h21.496c.415 0 .752.336.752.75s-.337.75-.752.75h-21.496zm71.496-1.5a.751.751 0 1 1 0 1.5h-33.496a.751.751 0 1 1 0-1.5h33.496zm152 0c.414 0 .752.336.752.75s-.338.75-.754.75H32.754a.752.752 0 0 1-.754-.75c0-.414.338-.75.754-.75H167.25zm50.002 0a.75.75 0 0 1 0 1.5h-33.5a.748.748 0 0 1-.75-.75c0-.414.333-.75.75-.75h33.5zm-273.498 29.5a.751.751 0 0 1-.752-.75c0-.414.337-.75.752-.75h21.496c.415 0 .752.336.752.75s-.337.75-.752.75h-21.496zm71.496-1.5a.751.751 0 1 1 0 1.5h-33.496a.751.751 0 1 1 0-1.5h33.496zm152 0c.414 0 .752.336.752.75s-.338.75-.754.75H32.754a.752.752 0 0 1-.754-.75c0-.414.338-.75.754-.75H167.25zm50.002 0a.75.75 0 0 1 0 1.5h-33.5a.748.748 0 0 1-.75-.75c0-.414.333-.75.75-.75h33.5zm-273.498 29.5a.751.751 0 0 1-.752-.75c0-.414.337-.75.752-.75h21.496c.415 0 .752.336.752.75s-.337.75-.752.75h-21.496zM16 253.75c0 .411-.337.75-.752.75h-33.496a.751.751 0 1 1 0-1.5h33.496c.415 0 .752.336.752.75zm152 0c0 .411-.34.75-.757.75H32.754a.752.752 0 0 1-.754-.75c0-.414.338-.75.754-.75h134.492c.416 0 .754.336.754.75zm50 0c0 .411-.339.75-.75.75h-33.5a.748.748 0 0 1-.75-.75c0-.414.333-.75.75-.75h33.5a.75.75 0 0 1 .75.75z" style="mix-blend-mode:overlay"/></svg>