<svg xmlns="http://www.w3.org/2000/svg" width="292" height="337"><path fill="#242730" fill-rule="evenodd" d="M23.064 10.496c.52 0 .936.432.936.964s-.42.964-.936.964H12.998v10.612c0 .532-.42.964-.936.964-.517 0-.936-.432-.936-.964V12.428H.936c-.517 0-.936-.432-.936-.964s.42-.964.936-.964h10.19V.964c0-.532.419-.964.936-.964.517 0 .936.432.936.964v9.532h10.066zm89 0c.517 0 .936.432.936.964s-.42.964-.936.964h-10.188v10.612c0 .532-.42.964-.936.964-.517 0-.936-.432-.936-.964V12.428H89.936c-.517 0-.936-.432-.936-.964s.42-.964.936-.964h10.068V.964c0-.532.42-.964.936-.964.517 0 .936.432.936.964v9.532h10.188zm90 0c.52 0 .936.432.936.964a.948.948 0 0 1-.936.964h-10.186v10.612c0 .532-.42.964-.936.964-.517 0-.936-.432-.936-.964V12.428h-10.07c-.517 0-.936-.432-.936-.964s.42-.964.936-.964h10.07V.964c0-.532.42-.964.936-.964.517 0 .936.432.936.964v9.532h10.186zm89 0c.517 0 .936.432.936.964s-.42.964-.936.964h-10.186v10.612a.948.948 0 0 1-.936.964.948.948 0 0 1-.936-.964V12.428h-10.07a.948.948 0 0 1-.936-.964c0-.532.416-.964.936-.964h10.07V.964c0-.532.415-.964.936-.964.52 0 .936.432.936.964v9.532h10.186zm-268 89.506a.937.937 0 0 1 0 1.872H12.998v10.19a.937.937 0 0 1-1.872 0v-10.19H.936a.937.937 0 0 1 0-1.872h10.19V89.936a.937.937 0 0 1 1.872 0v10.066h10.066zm89 0a.937.937 0 0 1 0 1.872h-10.188v10.19a.937.937 0 0 1-1.872 0v-10.19H89.936a.937.937 0 0 1 0-1.872h10.068V89.936a.937.937 0 0 1 1.872 0v10.066h10.188zm90 0c.52 0 .936.42.936.936a.934.934 0 0 1-.936.936h-10.186v10.19a.937.937 0 0 1-1.872 0v-10.19h-10.07a.937.937 0 0 1 0-1.872h10.07V89.936a.937.937 0 0 1 1.872 0v10.066h10.186zm89 0a.937.937 0 0 1 0 1.872h-10.186v10.19a.934.934 0 0 1-.936.936.934.934 0 0 1-.936-.936v-10.19h-10.07a.934.934 0 0 1-.936-.936c0-.517.416-.936.936-.936h10.07V89.936c0-.517.415-.936.936-.936.52 0 .936.42.936.936v10.066h10.186zM44.932 147.11a.934.934 0 0 1-.932-.936c0-.517.417-.936.932-.936H55.07v-10.302c0-.517.418-.936.932-.936s.931.42.931.936v10.302h10.135c.515 0 .932.42.932.936a.934.934 0 0 1-.932.936H56.933v9.954a.934.934 0 0 1-.931.936.934.934 0 0 1-.932-.936v-9.954H44.932zm90.009 0a.939.939 0 0 1-.941-.936c0-.517.422-.936.94-.936h10.117v-10.302c0-.517.422-.936.941-.936.52 0 .941.42.941.936v10.302h10.12c.52 0 .941.42.941.936a.939.939 0 0 1-.94.936h-10.121v9.954a.939.939 0 0 1-.94.936.94.94 0 0 1-.942-.936v-9.954h-10.116zm89 0a.939.939 0 0 1-.941-.936c0-.517.422-.936.94-.936h10.121v-10.302c0-.517.422-.936.94-.936.52 0 .942.42.942.936v10.302h10.116a.936.936 0 1 1 0 1.872h-10.116v9.954a.939.939 0 0 1-.941.936.939.939 0 0 1-.941-.936v-9.954h-10.12zm89.995 0a.937.937 0 0 1 0-1.872h10.186v-10.302c0-.517.416-.936.936-.936s.936.42.936.936v10.302h10.07c.52 0 .936.42.936.936a.934.934 0 0 1-.936.936h-10.07v9.954a.934.934 0 0 1-.936.936.934.934 0 0 1-.936-.936v-9.954h-10.186zM23.064 190.188a.932.932 0 1 1 0 1.863H12.998v10.017c0 .515-.42.932-.936.932a.934.934 0 0 1-.936-.932v-10.017H.936a.934.934 0 0 1-.936-.932c0-.514.42-.931.936-.931h10.19v-10.256c0-.515.419-.932.936-.932.517 0 .936.417.936.932v10.256h10.066zm89 0c.517 0 .936.417.936.931 0 .515-.42.932-.936.932h-10.188v10.017c0 .515-.42.932-.936.932a.934.934 0 0 1-.936-.932v-10.017H89.936a.934.934 0 0 1-.936-.932c0-.514.42-.931.936-.931h10.068v-10.256c0-.515.42-.932.936-.932.517 0 .936.417.936.932v10.256h10.188zm90 0a.932.932 0 1 1 0 1.863h-10.186v10.017c0 .515-.42.932-.936.932a.934.934 0 0 1-.936-.932v-10.017h-10.07a.934.934 0 0 1-.936-.932c0-.514.42-.931.936-.931h10.07v-10.256c0-.515.42-.932.936-.932.517 0 .936.417.936.932v10.256h10.186zm89 0c.517 0 .936.417.936.931 0 .515-.42.932-.936.932h-10.186v10.017a.932.932 0 0 1-.936.932.932.932 0 0 1-.936-.932v-10.017h-10.07a.932.932 0 1 1 0-1.863h10.07v-10.256c0-.515.415-.932.936-.932.52 0 .936.417.936.932v10.256h10.186zM44.932 236.943a.937.937 0 0 1-.932-.941c0-.52.417-.941.932-.941H55.07v-10.12c0-.52.418-.941.932-.941s.931.422.931.94v10.121h10.135c.515 0 .932.422.932.94 0 .52-.417.942-.932.942H56.933v10.116c0 .52-.417.941-.931.941a.937.937 0 0 1-.932-.94v-10.117H44.932zm90.009 0a.941.941 0 0 1 0-1.882h10.116v-10.12a.941.941 0 0 1 1.882 0v10.12h10.12a.941.941 0 0 1 0 1.882h-10.12v10.116a.941.941 0 0 1-1.882 0v-10.116h-10.116zm89 0a.941.941 0 0 1 0-1.882h10.12v-10.12a.941.941 0 0 1 1.882 0v10.12h10.116a.94.94 0 0 1 .941.94.94.94 0 0 1-.94.942h-10.117v10.116a.941.941 0 0 1-1.882 0v-10.116h-10.12zm89.995 0a.939.939 0 0 1-.936-.941c0-.52.42-.941.936-.941h10.186v-10.12a.936.936 0 1 1 1.872 0v10.12h10.07c.52 0 .936.422.936.94 0 .52-.416.942-.936.942h-10.07v10.116a.936.936 0 1 1-1.872 0v-10.116h-10.186zM23.064 279.057c.52 0 .936.422.936.941 0 .52-.42.941-.936.941H12.998v10.12c0 .52-.42.941-.936.941a.939.939 0 0 1-.936-.94v-10.121H.936a.939.939 0 0 1-.936-.94c0-.52.42-.942.936-.942h10.19v-10.116c0-.52.419-.941.936-.941.517 0 .936.422.936.94v10.117h10.066zm89 0c.517 0 .936.422.936.941 0 .52-.42.941-.936.941h-10.188v10.12c0 .52-.42.941-.936.941a.939.939 0 0 1-.936-.94v-10.121H89.936a.939.939 0 0 1-.936-.94c0-.52.42-.942.936-.942h10.068v-10.116c0-.52.42-.941.936-.941.517 0 .936.422.936.94v10.117h10.188zm90 0c.52 0 .936.422.936.941 0 .52-.416.941-.936.941h-10.186v10.12c0 .52-.42.941-.936.941a.939.939 0 0 1-.936-.94v-10.121h-10.07a.939.939 0 0 1-.936-.94c0-.52.42-.942.936-.942h10.07v-10.116c0-.52.42-.941.936-.941.517 0 .936.422.936.94v10.117h10.186zm89 0c.517 0 .936.422.936.941 0 .52-.42.941-.936.941h-10.186v10.12a.936.936 0 1 1-1.872 0v-10.12h-10.07a.936.936 0 0 1-.936-.94c0-.52.416-.942.936-.942h10.07v-10.116a.936.936 0 1 1 1.872 0v10.116h10.186zM44.932 325.82a.937.937 0 0 1-.932-.94c0-.52.417-.941.932-.941H55.07v-9.998c0-.52.418-.941.932-.941s.931.421.931.94v9.999h10.135c.515 0 .932.421.932.94 0 .52-.417.941-.932.941H56.933v10.24c0 .519-.417.94-.931.94a.937.937 0 0 1-.932-.94v-10.24H44.932zm90.009 0a.941.941 0 0 1 0-1.881h10.116v-9.998a.941.941 0 0 1 1.882 0v9.998h10.12a.941.941 0 0 1 0 1.881h-10.12v10.24a.941.941 0 0 1-1.882 0v-10.24h-10.116zm89 0a.941.941 0 0 1 0-1.881h10.12v-9.998a.941.941 0 0 1 1.882 0v9.998h10.116c.523 0 .941.421.941.94 0 .52-.418.941-.94.941h-10.117v10.24a.941.941 0 0 1-1.882 0v-10.24h-10.12zm89.995 0a.939.939 0 0 1-.936-.94c0-.52.42-.941.936-.941h10.186v-9.998a.936.936 0 1 1 1.872 0v9.998h10.07c.52 0 .936.421.936.94 0 .52-.416.941-.936.941h-10.07v10.24a.936.936 0 1 1-1.872 0v-10.24h-10.186zM56.002 45c.514 0 .931.423.931.936v10.071h10.135c.515 0 .932.42.932.937a.934.934 0 0 1-.932.936H56.933v10.184a.934.934 0 0 1-.931.936.934.934 0 0 1-.932-.936V57.88H44.932a.934.934 0 0 1-.932-.936c0-.517.417-.937.932-.937H55.07v-10.07c0-.518.418-.937.932-.937zm90 0c.52 0 .94.423.937.936v10.071h10.12c.52 0 .941.42.941.937a.939.939 0 0 1-.94.936h-10.121v10.184a.939.939 0 0 1-.94.936.94.94 0 0 1-.942-.936V57.88h-10.116a.939.939 0 0 1-.941-.936.94.94 0 0 1 .94-.937h10.121v-10.07c0-.518.422-.937.94-.937zm89 0c.52 0 .94.423.94.936v10.071h10.117a.937.937 0 1 1 0 1.873h-10.116v10.184a.939.939 0 0 1-.941.936.939.939 0 0 1-.941-.936V57.88h-10.12a.939.939 0 0 1-.941-.936.94.94 0 0 1 .94-.937h10.121v-10.07c0-.518.422-.937.94-.937zm90.056 0c.517 0 .936.423.936.936v10.071h10.07c.52 0 .936.42.936.937a.934.934 0 0 1-.936.936h-10.07v10.184a.934.934 0 0 1-.936.936.934.934 0 0 1-.936-.936V57.88h-10.186a.937.937 0 0 1 0-1.873h10.186v-10.07c0-.518.416-.937.936-.937z"/></svg>